{
  "title": "Paddington.2014.1080p.BluRay.x264-SPARKS[rarbg]",
  "uid": 11770142,
  "size": 8213817229,
  "categoryP": "video",
  "categoryS": "hd___movies",
  "magnet": "?xt=urn:btih:46417ad46719fe9dc2300a9169fef2c813567289&amp;dn=Paddington.2014.1080p.BluRay.x264-SPARKS%5Brarbg%5D&amp;tr=udp%3A%2F%2Ftracker.openbittorrent.com%3A80&amp;tr=udp%3A%2F%2Fopen.demonii.com%3A1337&amp;tr=udp%3A%2F%2Ftracker.coppersurfer.tk%3A6969&amp;tr=udp%3A%2F%2Fexodus.desync.com%3A6969",
  "seeders": 40,
  "leechers": 12,
  "uploader": "vickey1992",
  "files": 6,
  "time": 1427035950,
  "description": "\n\n\n\n\n\n\n\nPaddington.2014.1080p.BluRay.x264-SPARKS\n\nRelease.Date: 21.03.2015\nVideo.......: X264 9992Kbps\nFrame.Rate..: 23.976\nResolution..: 1920x808\nAudio.......: DTS 1509Kbps 6ch\nLanguage....: English\nLength......: 1h 35mn\nSource......: Retail BluRay\nSize........: 7829MB\nSubtitles...: English\n\nIMDb: http://www.imdb.com/title/tt1109624\n\nALLiANCE - iMARS\n\nASCii/NFO: pH7 of SiLK\n\n[-] Hide MediaInfo\n\nVideo\nID : 1\nFormat : AVC\nFormat/Info : Advanced Video Codec\nFormat profile : &lt;a class=&quot;__cf_email__&quot; href=&quot;/cdn-cgi/l/email-protection&quot; data-cfemail=&quot;f2ba9b959ab2bec6dcc3&quot;&gt;[email&amp;#160;protected]&lt;/a&gt;&lt;script cf-hash='f9e31' type=&quot;text/javascript&quot;&gt;\n/* &lt;![CDATA[ */!function(){try{var t=&quot;currentScript&quot;in document?document.currentScript:function(){for(var t=document.getElementsByTagName(&quot;script&quot;),e=t.length;e--;)if(t[e].getAttribute(&quot;cf-hash&quot;))return t[e]}();if(t&amp;&amp;t.previousSibling){var e,r,n,i,c=t.previousSibling,a=c.getAttribute(&quot;data-cfemail&quot;);if(a){for(e=&quot;&quot;,r=parseInt(a.substr(0,2),16),n=2;a.length-n;n+=2)i=parseInt(a.substr(n,2),16)^r,e+=String.fromCharCode(i);e=document.createTextNode(e),c.parentNode.replaceChild(e,c)}}}catch(u){}}();/* ]]&gt; */&lt;/script&gt;\nFormat settings, CABAC : Yes\nFormat settings, ReFrames : 5 frames\nCodec ID : V_MPEG4/ISO/AVC\nDuration : 1h 35mn\nBit rate : 9 992 Kbps\nWidth : 1 920 pixels\nHeight : 808 pixels\nDisplay aspect ratio : 2.40:1\nFrame rate mode : Constant\nFrame rate : 23.976 fps\nColor space : YUV\nChroma subsampling : 4:2:0\nBit depth : 8 bits\nScan type : Progressive\nBits/(Pixel*Frame) : 0.269\nStream size : 6.49 GiB (85%)\nWriting library : x264 core 144 r2525 40bb568\nEncoding settings : cabac=1 / ref=5 / deblock=1:0:0 / analyse=0x3:0x133 / me=umh / subme=7 / psy=1 / psy_rd=1.00:0.00 / mixed_ref=1 / me_range=16 / chroma_me=1 / trellis=1 / 8x8dct=1 / cqm=0 / deadzone=21,11 / fast_pskip=0 / chroma_qp_offset=-2 / threads=60 / lookahead_threads=6 / sliced_threads=0 / nr=0 / decimate=1 / interlaced=0 / bluray_compat=0 / constrained_intra=0 / bframes=3 / b_pyramid=2 / b_adapt=1 / b_bias=0 / direct=1 / weightb=1 / open_gop=0 / weightp=2 / keyint=250 / keyint_min=23 / scenecut=40 / intra_refresh=0 / rc_lookahead=40 / rc=2pass / mbtree=1 / bitrate=9992 / ratetol=1.0 / qcomp=0.60 / qpmin=0 / qpmax=69 / qpstep=4 / cplxblur=20.0 / qblur=0.5 / ip_ratio=1.40 / aq=1:1.00\nLanguage : English\nDefault : Yes\nForced : No\n\nAudio\nID : 2\nFormat : DTS\nFormat/Info : Digital Theater Systems\nMode : 16\nFormat settings, Endianness : Big\nCodec ID : A_DTS\nDuration : 1h 35mn\nBit rate mode : Constant\nBit rate : 1 509 Kbps\nChannel(s) : 6 channels\nChannel positions : Front: L C R, Side: L R, LFE\nSampling rate : 48.0 KHz\nBit depth : 24 bits\nCompression mode : Lossy\nStream size : 1.00 GiB (13%)\nLanguage : English\nDefault : Yes\nForced : No\n\nMenu\n00:00:00.000 : en:00:00:00.000\n00:09:26.149 : en:00:09:26.149\n00:16:45.755 : en:00:16:45.755\n00:24:45.651 : en:00:24:45.651\n00:32:44.921 : en:00:32:44.921\n00:40:31.179 : en:00:40:31.179\n00:47:55.664 : en:00:47:55.664\n00:57:52.469 : en:00:57:52.469\n01:03:24.467 : en:01:03:24.467\n01:10:31.727 : en:01:10:31.727\n01:23:49.983 : en:01:23:49.983\n01:27:39.504 : en:01:27:39.504\n\n\n\nPaddington.2014.1080p.BluRay.x264-SPARKS\thttp://imdb.com/title/tt1109624/\n\nCategory:\tMovies/x264/1080\nSize:\t7.65 GB\nShow/Hide Files:\t\n6 files\nAdded:\t2015-03-21 01:34:10\nTitle:\tPaddington (2014)\nIMDB Rating:\t7.5/10 Updated : 2015-03-08\nRotten Rating:\t7.9/10\nRottenTomatoes:\tfresh! 98% audience liked it! 85%\nGenres:\tComedy , Family\nActors:\tHugh Bonneville , Sally Hawkins , Julie Walters , Tim Downie , Madeleine Worrall , Lottie Steer , Geoffrey Palmer , Theresa Watson , Imelda Staunton , \nMichael Gambon , Ben Whishaw , Madeleine Harris , Samuel Joslin , Michael Bond , Matt Lucas\nDirector:\tPaul King\nRuntime:\t95\nYear:\t2014\nPlot:\tA young Peruvian bear with a passion for all things British travels to London in search of a home. Finding himself lost and alone at Paddington Station| he begins to\nrealize that city life is not all he had imagined - until he meets the kindly Brown family| who read the label around his neck ('Please look after this bear. Thank\nyou.') and offer him a temporary haven. It looks as though his luck has changed until this rarest of bears catches the eye of a museum taxidermist.\nRotten Plot:\tPaddington brings a beloved children's character into the 21st century without sacrificing his essential charm, delivering a family-friendly adventure as irresistibly cuddly as its star",
  "parsed": {
    "xt": "urn:btih:46417ad46719fe9dc2300a9169fef2c813567289",
    "dn": "Paddington.2014.1080p.BluRay.x264-SPARKS[rarbg]",
    "tr": [
      "udp://exodus.desync.com:6969",
      "udp://open.demonii.com:1337",
      "udp://tracker.coppersurfer.tk:6969",
      "udp://tracker.openbittorrent.com:80"
    ],
    "infoHash": "46417ad46719fe9dc2300a9169fef2c813567289",
    "infoHashBuffer": {
      "type": "Buffer",
      "data": [
        70,
        65,
        122,
        212,
        103,
        25,
        254,
        157,
        194,
        48,
        10,
        145,
        105,
        254,
        242,
        200,
        19,
        86,
        114,
        137
      ]
    },
    "name": "Paddington.2014.1080p.BluRay.x264-SPARKS[rarbg]",
    "announce": [
      "udp://exodus.desync.com:6969",
      "udp://open.demonii.com:1337",
      "udp://tracker.coppersurfer.tk:6969",
      "udp://tracker.openbittorrent.com:80"
    ],
    "urlList": []
  },
  "previous": 52,
  "peers": 17,
  "last_updated": "2016-12-24T23:48:28.908Z"
}